<svg id="Layer_1" data-name="Layer 1" xmlns="http://www.w3.org/2000/svg" xmlns:xlink="http://www.w3.org/1999/xlink" viewBox="0 0 2000 2000"><defs><style>.cls-1{fill:url(#linear-gradient);}.cls-2{fill:url(#New_Gradient_Swatch_2);}.cls-3{fill:none;stroke:#fff;stroke-miterlimit:10;stroke-width:25.1px;}</style><linearGradient id="linear-gradient" x1="566.99" y1="1750" x2="1433.01" y2="250" gradientUnits="userSpaceOnUse"><stop offset="0" stop-color="#1f1f1f"/><stop offset="1" stop-color="#001e45"/></linearGradient><linearGradient id="New_Gradient_Swatch_2" x1="133.97" y1="1000" x2="1866.03" y2="1000" gradientUnits="userSpaceOnUse"><stop offset="0" stop-color="#0cc2ed"/><stop offset="0.5" stop-color="#e600ff"/><stop offset="1" stop-color="#ff003d"/></linearGradient></defs><title>Icon</title><polygon class="cls-1" points="1866.03 1500 1866.03 500 1000 0 133.97 500 133.97 1500 1000 2000 1866.03 1500"/><path class="cls-2" d="M1000,80.83l796,459.58v919.17l-796,459.59L204,1459.58V540.41L1000,80.83M1000,0,134,500V1500l866,500,866-500V500L1000,0Z"/><line class="cls-3" x1="1000" y1="1263.51" x2="1000" y2="757.9"/><polyline class="cls-3" points="795.96 957.26 1000 753.22 1204.04 957.26"/><path class="cls-3" d="M1450,1000c0,248.53-201.47,450-450,450s-450-201.47-450-450,201.47-450,450-450"/></svg>