<svg xmlns="http://www.w3.org/2000/svg" width="197" height="228" fill="none" viewBox="0 0 197 228"><g clip-path="url(#a)"><path fill="url(#b)" d="M196.773 170.48V57.003L98.499.265.225 57.003V170.48L98.5 227.218l98.274-56.738Z"/><path fill="url(#c)" d="m98.5 9.437 90.327 52.152v104.304L98.5 218.046 8.172 165.893V61.589L98.5 9.437Zm0-9.172L.229 57.003V170.48l98.27 56.738 98.271-56.738V57.003L98.5.265Z"/><path fill="#fff" fill-rule="evenodd" d="m94.138 78.599.787 16.512a.613.613 0 0 1-1.225 0l-.786-16.512h-1.612V95.11a.611.611 0 1 1-1.224 0V78.599h-1.626l-.871 16.512a.611.611 0 1 1-1.224 0l.872-16.512H85.79s-2.448 14.688-2.448 19.584c0 4.895 6.119 4.895 6.119 9.791 0 2.118-2.448 34.27-2.448 39.167 0 4.896 0 9.791 3.672 9.791s3.672-4.896 3.672-9.791c0-4.895-2.44-37.031-2.44-39.167 0-4.899 6.117-4.899 6.117-9.791s-2.449-19.584-2.449-19.584h-1.447ZM107.532 74.187c-1.223 6.12-3.671 30.573-3.671 40.364 0 9.792 6.12 4.896 6.12 9.792 0 2.137-3.672 17.901-3.672 22.798 0 4.896 0 9.791 3.672 9.791s3.671-4.896 3.671-9.791V74.187c0-4.896-5.159-4.8-6.12 0Z" clip-rule="evenodd"/><path stroke="#fff" stroke-miterlimit="10" stroke-width="2.848" d="M59.401 62.677h70.22a7.977 7.977 0 0 1 7.976 7.976v86.178a7.976 7.976 0 0 1-7.976 7.976h-70.22V62.677Z"/></g><defs><linearGradient id="b" x1="49.363" x2="147.636" y1="198.849" y2="28.634" gradientUnits="userSpaceOnUse"><stop stop-color="#1F1F1F"/><stop offset="1" stop-color="#001E45"/></linearGradient><linearGradient id="c" x1=".226" x2="196.774" y1="113.741" y2="113.741" gradientUnits="userSpaceOnUse"><stop stop-color="#0CC2ED"/><stop offset=".5" stop-color="#E600FF"/><stop offset="1" stop-color="#FF003D"/></linearGradient><clipPath id="a"><path fill="#fff" d="M0 .265h197v226.953H0z"/></clipPath></defs></svg>