<svg xmlns="http://www.w3.org/2000/svg" width="198" height="228" fill="none" viewBox="0 0 198 228"><g clip-path="url(#a)"><path fill="url(#b)" d="M197.503 170.612V56.871L99 0 .497 56.87v113.742L99 227.483l98.503-56.871Z"/><path fill="url(#c)" d="m99 9.194 90.538 52.273v104.548L99 218.289 8.462 166.015V61.467L99 9.194ZM99 0 .5 56.87v113.742L99 227.483l98.5-56.871V56.871L99 0Z"/><path stroke="#fff" stroke-miterlimit="10" stroke-width="2.788" d="M123.014 96.578v-14.2h-10.251v8.134L99 82.377 69.427 99.865a7.362 7.362 0 0 0-3.613 6.335h9.174v30.91a7.995 7.995 0 0 0 7.995 7.993h32.039a7.991 7.991 0 0 0 7.995-7.993v-30.909h9.174a7.353 7.353 0 0 0-3.618-6.336l-5.559-3.287Z"/><path stroke="#fff" stroke-miterlimit="10" stroke-width="2.788" d="M142.189 62.558H55.811a7.995 7.995 0 0 0-7.995 7.994v86.378a7.995 7.995 0 0 0 7.995 7.995h86.378a7.996 7.996 0 0 0 7.995-7.995V70.552a7.995 7.995 0 0 0-7.995-7.994Z"/><path fill="#fff" d="M55.746 160.26a3.33 3.33 0 1 0 0-6.66 3.33 3.33 0 0 0 0 6.66ZM65.033 160.26a3.33 3.33 0 1 0 0-6.66 3.33 3.33 0 0 0 0 6.66ZM74.32 160.26a3.33 3.33 0 1 0 0-6.66 3.33 3.33 0 0 0 0 6.66Z"/></g><defs><linearGradient id="b" x1="49.749" x2="148.251" y1="199.047" y2="28.435" gradientUnits="userSpaceOnUse"><stop stop-color="#1F1F1F"/><stop offset="1" stop-color="#001E45"/></linearGradient><linearGradient id="c" x1=".497" x2="197.503" y1="113.741" y2="113.741" gradientUnits="userSpaceOnUse"><stop stop-color="#0CC2ED"/><stop offset=".5" stop-color="#E600FF"/><stop offset="1" stop-color="#FF003D"/></linearGradient><clipPath id="a"><path fill="#fff" d="M.5 0h197v227.483H.5z"/></clipPath></defs></svg>